<svg width="2514" height="1568" viewBox="0 0 2514 1568" fill="none" xmlns="http://www.w3.org/2000/svg">
<path d="M1728.05 276.957C1829.24 268.113 1931.16 280.701 2027.16 313.9C2123.15 347.098 2211.07 400.161 2285.18 469.628C2359.29 539.094 2417.92 623.403 2457.25 717.055C2496.58 810.707 2515.72 911.599 2513.44 1013.15L2240.53 1007C2241.96 943.806 2230.04 881.025 2205.57 822.749C2181.1 764.472 2144.61 712.01 2098.5 668.784C2052.39 625.557 1997.68 592.538 1937.94 571.88C1878.21 551.222 1814.79 543.388 1751.82 548.891L1728.05 276.957Z" fill="url(#paint0_linear_861_87)"/>
<path fill-rule="evenodd" clip-rule="evenodd" d="M877.694 164.641C751.875 268.178 664.739 411.197 630.429 570.487L897.281 627.964C918.63 528.844 972.852 439.848 1051.14 375.422C1129.44 310.995 1227.21 274.918 1328.58 273.048C1429.96 271.177 1528.99 303.623 1609.61 365.118C1672.4 413.015 1721.14 476.346 1751.44 548.443C1776.76 529.924 1828.33 494.302 1835.81 497.294C1843.33 500.304 1934.28 532.876 1978.82 548.786L1973.46 560.751L2037.23 544.531C1997.07 386.616 1904.72 246.908 1775.16 148.083C1645.61 49.2581 1486.46 -2.88277 1323.55 0.123048C1160.63 3.12886 1003.51 61.1049 877.694 164.641Z" fill="#DB5037"/>
<path fill-rule="evenodd" clip-rule="evenodd" d="M877.694 164.641C751.875 268.178 664.739 411.197 630.429 570.487L897.281 627.964C918.63 528.844 972.852 439.848 1051.14 375.422C1129.44 310.995 1227.21 274.918 1328.58 273.048C1429.96 271.177 1528.99 303.623 1609.61 365.118C1672.4 413.015 1721.14 476.346 1751.44 548.443C1776.76 529.924 1828.33 494.302 1835.81 497.294C1843.33 500.304 1934.28 532.876 1978.82 548.786L1973.46 560.751L2037.23 544.531C1997.07 386.616 1904.72 246.908 1775.16 148.083C1645.61 49.2581 1486.46 -2.88277 1323.55 0.123048C1160.63 3.12886 1003.51 61.1049 877.694 164.641Z" fill="url(#paint1_linear_861_87)"/>
<path fill-rule="evenodd" clip-rule="evenodd" d="M85.0218 1274C130.762 1351.6 193.02 1418.18 267.38 1469.02L267.832 1468.36H2094.65C2130.14 1527.9 2195.16 1567.78 2269.51 1567.78C2381.85 1567.78 2472.93 1476.7 2472.93 1364.35C2472.93 1252.01 2381.85 1160.93 2269.51 1160.93C2201.28 1160.93 2140.91 1194.51 2104 1246.05H358.115C329.312 1220.1 304.555 1189.84 284.767 1156.26C256.304 1107.98 238.819 1054.02 233.551 998.211C228.283 942.407 235.362 886.127 254.286 833.366C273.209 780.605 303.513 732.655 343.047 692.919C382.581 653.184 430.376 622.637 483.041 603.445C535.705 584.254 591.948 576.889 647.778 581.873C703.608 586.857 757.657 604.068 806.089 632.284C854.522 660.5 896.15 699.031 928.021 745.141L1118.75 613.308C1067.54 539.208 1000.64 477.288 922.807 431.943C844.974 386.599 758.116 358.94 668.394 350.931C578.673 342.921 488.289 354.757 403.655 385.598C319.022 416.439 242.213 465.53 178.681 529.386C115.148 593.243 66.4485 670.3 36.038 755.089C5.62742 839.878 -5.74874 930.322 2.71677 1020C11.1823 1109.68 39.282 1196.4 85.0218 1274ZM2181.12 1364.35C2181.12 1413.17 2220.69 1452.74 2269.51 1452.74C2318.32 1452.74 2357.9 1413.17 2357.9 1364.35C2357.9 1315.54 2318.32 1275.96 2269.51 1275.96C2220.69 1275.96 2181.12 1315.54 2181.12 1364.35ZM443.702 1399.75C445.096 1401 446.91 1401.63 449.141 1401.63C451.373 1401.63 453.116 1401 454.372 1399.75C455.767 1398.49 456.464 1396.89 456.464 1394.94V1334.05C456.464 1330.57 458.277 1328.82 461.904 1328.82H474.875C476.828 1328.82 478.432 1328.27 479.687 1327.15C480.942 1325.89 481.57 1324.29 481.57 1322.34C481.57 1320.39 480.942 1318.85 479.687 1317.73C478.432 1316.48 476.828 1315.85 474.875 1315.85H423.198C418.874 1315.85 416.713 1318.01 416.713 1322.34C416.713 1326.66 418.874 1328.82 423.198 1328.82H436.379C440.005 1328.82 441.819 1330.57 441.819 1334.05V1394.94C441.819 1396.89 442.446 1398.49 443.702 1399.75ZM584.103 1396.4C586.195 1398.49 588.985 1399.54 592.472 1399.54H625.528C627.62 1399.54 629.224 1398.91 630.34 1397.66C631.596 1396.4 632.223 1394.94 632.223 1393.26C632.223 1391.59 631.665 1390.12 630.55 1388.87C629.573 1387.47 627.899 1386.78 625.528 1386.78H600.841C597.354 1386.78 595.61 1384.96 595.61 1381.34V1368.57C595.61 1365.09 597.284 1363.34 600.631 1363.34H621.344C623.436 1363.34 625.04 1362.72 626.156 1361.46C627.411 1360.07 628.039 1358.6 628.039 1357.07C628.039 1355.39 627.481 1353.93 626.365 1352.67C625.389 1351.42 623.715 1350.79 621.344 1350.79H600.631C597.284 1350.79 595.61 1348.98 595.61 1345.35V1333.84C595.61 1330.22 597.423 1328.41 601.05 1328.41H623.436C625.528 1328.41 627.132 1327.78 628.248 1326.52C629.503 1325.27 630.131 1323.8 630.131 1322.13C630.131 1320.32 629.573 1318.85 628.457 1317.73C627.481 1316.48 625.807 1315.85 623.436 1315.85H591.844C588.915 1315.85 586.335 1316.9 584.103 1318.99C582.011 1320.94 580.965 1323.52 580.965 1326.73V1388.03C580.965 1391.52 582.011 1394.31 584.103 1396.4ZM789.202 1399.54C794.223 1398.28 797.919 1396.75 800.291 1394.94C802.662 1393.12 803.847 1390.96 803.847 1388.45C803.847 1386.78 803.289 1385.31 802.174 1384.06C801.058 1382.66 799.593 1381.96 797.78 1381.96C796.664 1381.96 795.339 1382.38 793.805 1383.22C791.992 1384.61 789.272 1385.94 785.645 1387.2C782.019 1388.31 778.323 1388.87 774.557 1388.87C766.049 1388.87 759.214 1385.87 754.053 1379.87C748.893 1373.88 746.312 1366.62 746.312 1358.11C746.312 1352.4 747.428 1347.16 749.66 1342.42C752.031 1337.68 755.309 1333.91 759.493 1331.12C763.677 1328.2 768.559 1326.73 774.138 1326.73C777.067 1326.73 779.996 1327.08 782.926 1327.78C785.994 1328.47 788.644 1329.24 790.876 1330.08C791.992 1330.5 792.968 1330.71 793.805 1330.71C795.758 1330.71 797.292 1330.01 798.408 1328.61C799.663 1327.22 800.291 1325.62 800.291 1323.8C800.291 1322.69 799.942 1321.57 799.245 1320.45C798.687 1319.2 797.71 1318.22 796.315 1317.53C792.828 1316.13 789.342 1315.15 785.855 1314.6C782.507 1314.04 779.09 1313.76 775.603 1313.76C766.816 1313.76 759.075 1315.64 752.38 1319.41C745.824 1323.04 740.733 1328.13 737.107 1334.68C733.48 1341.24 731.667 1348.77 731.667 1357.28C731.667 1365.92 733.55 1373.6 737.316 1380.29C741.082 1386.99 746.173 1392.22 752.589 1395.98C759.005 1399.75 766.258 1401.63 774.348 1401.63C779.229 1401.63 784.181 1400.93 789.202 1399.54ZM907.337 1399.75C908.731 1401 910.475 1401.63 912.567 1401.63C914.799 1401.63 916.542 1401 917.797 1399.75C919.192 1398.49 919.89 1396.89 919.89 1394.94V1368.37C919.89 1364.18 921.842 1362.09 925.748 1362.09H955.875C959.781 1362.09 961.733 1364.18 961.733 1368.37V1394.94C961.733 1396.89 962.361 1398.49 963.616 1399.75C965.011 1401 966.824 1401.63 969.056 1401.63C971.288 1401.63 973.031 1401 974.286 1399.75C975.681 1398.49 976.379 1396.89 976.379 1394.94V1321.71C976.379 1319.62 975.681 1317.94 974.286 1316.69C973.031 1315.43 971.288 1314.81 969.056 1314.81C966.824 1314.81 965.011 1315.43 963.616 1316.69C962.361 1317.94 961.733 1319.62 961.733 1321.71V1342.84C961.733 1347.03 959.781 1349.12 955.875 1349.12H925.748C921.842 1349.12 919.89 1347.03 919.89 1342.84V1321.71C919.89 1319.62 919.192 1317.94 917.797 1316.69C916.542 1315.43 914.799 1314.81 912.567 1314.81C910.475 1314.81 908.731 1315.43 907.337 1316.69C905.942 1317.94 905.244 1319.62 905.244 1321.71V1394.94C905.244 1396.89 905.942 1398.49 907.337 1399.75ZM1085.32 1399.96C1086.85 1401.07 1088.52 1401.63 1090.34 1401.63C1092.29 1401.63 1093.96 1401.07 1095.36 1399.96C1096.89 1398.84 1097.66 1397.17 1097.66 1394.94L1097.03 1345.35C1097.03 1343.4 1097.66 1342.42 1098.91 1342.42C1099.75 1342.42 1100.52 1342.98 1101.22 1344.1L1135.11 1396.82C1136.23 1398.49 1137.55 1399.68 1139.08 1400.38C1140.76 1401.21 1142.43 1401.63 1144.11 1401.63C1146.48 1401.63 1148.57 1400.86 1150.38 1399.33C1152.2 1397.8 1153.1 1395.49 1153.1 1392.43V1321.5C1153.1 1319.27 1152.34 1317.6 1150.8 1316.48C1149.27 1315.36 1147.59 1314.81 1145.78 1314.81C1143.97 1314.81 1142.29 1315.36 1140.76 1316.48C1139.22 1317.6 1138.46 1319.27 1138.46 1321.5L1139.29 1371.92C1139.29 1373.88 1138.67 1374.85 1137.41 1374.85C1136.57 1374.85 1135.81 1374.29 1135.11 1373.18L1100.59 1318.99C1098.91 1316.2 1096.26 1314.81 1092.64 1314.81C1090.27 1314.81 1088.04 1315.64 1085.94 1317.32C1083.99 1318.85 1083.01 1321.22 1083.01 1324.43V1394.94C1083.01 1397.17 1083.78 1398.84 1085.32 1399.96ZM1277.13 1395.98C1283.82 1399.75 1291.21 1401.63 1299.3 1401.63C1307.39 1401.63 1314.65 1399.75 1321.06 1395.98C1327.62 1392.08 1332.78 1386.85 1336.55 1380.29C1340.45 1373.6 1342.4 1366.06 1342.4 1357.7C1342.4 1348.91 1340.45 1341.24 1336.55 1334.68C1332.78 1328.13 1327.62 1323.04 1321.06 1319.41C1314.65 1315.64 1307.39 1313.76 1299.3 1313.76C1291.21 1313.76 1283.82 1315.64 1277.13 1319.41C1270.57 1323.04 1265.34 1328.13 1261.44 1334.68C1257.53 1341.24 1255.58 1348.91 1255.58 1357.7C1255.58 1366.06 1257.53 1373.6 1261.44 1380.29C1265.34 1386.85 1270.57 1392.08 1277.13 1395.98ZM1313.95 1384.68C1309.77 1387.47 1304.88 1388.87 1299.3 1388.87C1293.73 1388.87 1288.77 1387.47 1284.45 1384.68C1280.13 1381.76 1276.78 1377.92 1274.41 1373.18C1272.04 1368.44 1270.85 1363.27 1270.85 1357.7C1270.85 1348.77 1273.5 1341.38 1278.8 1335.52C1284.1 1329.66 1290.94 1326.73 1299.3 1326.73C1307.53 1326.73 1314.3 1329.66 1319.6 1335.52C1324.9 1341.38 1327.55 1348.77 1327.55 1357.7C1327.55 1363.27 1326.36 1368.44 1323.99 1373.18C1321.62 1377.92 1318.27 1381.76 1313.95 1384.68ZM1448.03 1396.4C1450.12 1398.49 1452.91 1399.54 1456.39 1399.54H1486.52C1488.75 1399.54 1490.36 1398.91 1491.33 1397.66C1492.45 1396.26 1493.01 1394.73 1493.01 1393.05C1493.01 1391.52 1492.45 1390.05 1491.33 1388.66C1490.36 1387.27 1488.75 1386.57 1486.52 1386.57H1464.97C1463.02 1386.57 1461.63 1386.22 1460.79 1385.52C1459.95 1384.68 1459.53 1383.22 1459.53 1381.13V1321.71C1459.53 1319.34 1458.77 1317.6 1457.23 1316.48C1455.84 1315.36 1454.23 1314.81 1452.42 1314.81C1450.61 1314.81 1448.86 1315.36 1447.19 1316.48C1445.65 1317.6 1444.89 1319.34 1444.89 1321.71V1388.03C1444.89 1391.52 1445.93 1394.31 1448.03 1396.4ZM1609.78 1395.98C1616.48 1399.75 1623.87 1401.63 1631.96 1401.63C1640.05 1401.63 1647.3 1399.75 1653.72 1395.98C1660.28 1392.08 1665.44 1386.85 1669.2 1380.29C1673.11 1373.6 1675.06 1366.06 1675.06 1357.7C1675.06 1348.91 1673.11 1341.24 1669.2 1334.68C1665.44 1328.13 1660.28 1323.04 1653.72 1319.41C1647.3 1315.64 1640.05 1313.76 1631.96 1313.76C1623.87 1313.76 1616.48 1315.64 1609.78 1319.41C1603.23 1323.04 1598 1328.13 1594.09 1334.68C1590.19 1341.24 1588.23 1348.91 1588.23 1357.7C1588.23 1366.06 1590.19 1373.6 1594.09 1380.29C1598 1386.85 1603.23 1392.08 1609.78 1395.98ZM1646.61 1384.68C1642.42 1387.47 1637.54 1388.87 1631.96 1388.87C1626.38 1388.87 1621.43 1387.47 1617.11 1384.68C1612.78 1381.76 1609.44 1377.92 1607.06 1373.18C1604.69 1368.44 1603.51 1363.27 1603.51 1357.7C1603.51 1348.77 1606.16 1341.38 1611.46 1335.52C1616.76 1329.66 1623.59 1326.73 1631.96 1326.73C1640.19 1326.73 1646.96 1329.66 1652.26 1335.52C1657.56 1341.38 1660.21 1348.77 1660.21 1357.7C1660.21 1363.27 1659.02 1368.44 1656.65 1373.18C1654.28 1377.92 1650.93 1381.76 1646.61 1384.68ZM1795.51 1395.98C1802.07 1399.75 1809.32 1401.63 1817.27 1401.63C1825.36 1401.63 1832.47 1399.96 1838.61 1396.61C1844.75 1393.12 1849.49 1388.52 1852.84 1382.8C1856.32 1377.08 1858.07 1370.81 1858.07 1363.97C1858.07 1360.21 1857.37 1357.7 1855.98 1356.44C1854.58 1355.05 1852.35 1354.35 1849.28 1354.35H1825.43C1823.34 1354.35 1821.66 1354.91 1820.41 1356.02C1819.15 1357.14 1818.53 1358.67 1818.53 1360.62C1818.53 1364.95 1820.83 1367.11 1825.43 1367.11H1840.28C1842.52 1367.11 1843.63 1368.23 1843.63 1370.46C1843.35 1373.25 1842.03 1376.11 1839.66 1379.04C1837.43 1381.83 1834.36 1384.13 1830.45 1385.94C1826.69 1387.75 1822.29 1388.66 1817.27 1388.66C1808.9 1388.66 1802.07 1385.8 1796.77 1380.08C1791.61 1374.22 1789.03 1366.76 1789.03 1357.7C1789.03 1348.35 1791.75 1340.89 1797.19 1335.31C1802.77 1329.59 1809.81 1326.73 1818.32 1326.73C1821.94 1326.73 1825.57 1327.29 1829.2 1328.41C1832.82 1329.52 1836.31 1331.33 1839.66 1333.84C1841.19 1334.82 1842.59 1335.31 1843.84 1335.31C1845.79 1335.31 1847.33 1334.68 1848.44 1333.43C1849.7 1332.03 1850.33 1330.43 1850.33 1328.61C1850.33 1326.24 1849.49 1324.36 1847.82 1322.97C1843.49 1319.76 1838.89 1317.46 1834.01 1316.06C1829.13 1314.53 1823.83 1313.76 1818.11 1313.76C1809.88 1313.76 1802.42 1315.57 1795.72 1319.2C1789.17 1322.83 1783.94 1327.99 1780.03 1334.68C1776.26 1341.24 1774.38 1348.91 1774.38 1357.7C1774.38 1366.06 1776.26 1373.6 1780.03 1380.29C1783.94 1386.85 1789.1 1392.08 1795.51 1395.98ZM1983.5 1399.75C1984.9 1401 1986.71 1401.63 1988.94 1401.63C1991.18 1401.63 1992.92 1401 1994.17 1399.75C1995.57 1398.49 1996.27 1396.89 1996.27 1394.94V1371.92C1996.27 1368.57 1997.17 1365.51 1998.99 1362.72L2023.26 1326.1C2024.09 1324.85 2024.51 1323.59 2024.51 1322.34C2024.51 1320.25 2023.67 1318.5 2022 1317.11C2020.33 1315.57 2018.51 1314.81 2016.56 1314.81C2015.58 1314.81 2014.54 1315.02 2013.42 1315.43C2012.45 1315.85 2011.61 1316.69 2010.91 1317.94L1991.04 1349.75C1990.48 1350.72 1989.78 1351.21 1988.94 1351.21C1988.11 1351.21 1987.41 1350.72 1986.85 1349.75L1966.98 1317.94C1966.28 1316.69 1965.44 1315.85 1964.47 1315.43C1963.49 1315.02 1962.44 1314.81 1961.33 1314.81C1959.37 1314.81 1957.56 1315.57 1955.89 1317.11C1954.21 1318.5 1953.38 1320.25 1953.38 1322.34C1953.38 1323.59 1953.8 1324.85 1954.63 1326.1L1978.9 1362.72C1980.71 1365.51 1981.62 1368.57 1981.62 1371.92V1394.94C1981.62 1396.89 1982.25 1398.49 1983.5 1399.75Z" fill="url(#paint2_linear_861_87)"/>
<path d="M752.535 991.498C752.535 1012.55 748.839 1031.91 741.447 1049.59C734.215 1067.27 724.172 1082.53 711.316 1095.39C698.46 1108.09 683.193 1118.05 665.516 1125.28C647.84 1132.51 628.636 1136.13 607.906 1136.13H438.69C434.191 1136.13 430.012 1135.32 426.156 1133.72C422.299 1132.11 418.924 1129.94 416.032 1127.21C413.3 1124.32 411.13 1120.94 409.523 1117.08C407.916 1113.23 407.113 1109.05 407.113 1104.55V822.042C407.113 817.703 407.916 813.605 409.523 809.748C411.13 805.891 413.3 802.517 416.032 799.624C418.924 796.731 422.299 794.482 426.156 792.875C430.012 791.268 434.191 790.464 438.69 790.464H607.906C628.636 790.464 647.84 794.08 665.516 801.311C683.193 808.543 698.46 818.587 711.316 831.442C724.172 844.138 734.215 859.404 741.447 877.242C748.839 894.918 752.535 914.202 752.535 935.093V991.498ZM689.862 935.093C689.862 922.88 687.854 911.711 683.836 901.587C679.979 891.463 674.435 882.866 667.204 875.795C659.972 868.564 651.295 863.02 641.171 859.163C631.207 855.145 620.119 853.137 607.906 853.137H469.785V1073.45H607.906C620.119 1073.45 631.207 1071.53 641.171 1067.67C651.295 1063.65 659.972 1058.11 667.204 1051.04C674.435 1043.81 679.979 1035.21 683.836 1025.25C687.854 1015.12 689.862 1003.87 689.862 991.498V935.093Z" fill="white"/>
<path d="M1090.48 1048.14C1090.48 1058.91 1089.12 1068.63 1086.39 1077.31C1083.65 1085.83 1080.04 1093.38 1075.54 1099.97C1071.04 1106.4 1065.82 1111.94 1059.87 1116.6C1053.93 1121.1 1047.66 1124.8 1041.07 1127.69C1034.64 1130.58 1028.05 1132.75 1021.3 1134.2C1014.71 1135.48 1008.45 1136.13 1002.5 1136.13H889.45C880.772 1136.13 871.291 1134.6 861.007 1131.55C850.722 1128.49 841.16 1123.51 832.322 1116.6C823.644 1109.53 816.332 1100.45 810.386 1089.36C804.601 1078.12 801.709 1064.38 801.709 1048.14V963.296C801.709 947.226 804.601 933.647 810.386 922.559C816.332 911.31 823.644 902.23 832.322 895.32C841.16 888.249 850.722 883.187 861.007 880.134C871.291 877.081 880.772 875.554 889.45 875.554H1002.5C1018.57 875.554 1032.23 878.447 1043.48 884.232C1054.73 890.017 1063.81 897.329 1070.72 906.167C1077.63 914.845 1082.61 924.326 1085.66 934.611C1088.88 944.896 1090.48 954.457 1090.48 963.296V1048.14ZM1027.81 963.778C1027.81 955.1 1025.64 948.672 1021.3 944.494C1016.96 940.316 1010.7 938.227 1002.5 938.227H889.932C881.576 938.227 875.228 940.396 870.89 944.735C866.551 948.913 864.381 955.1 864.381 963.296V1048.14C864.381 1056.34 866.551 1062.61 870.89 1066.95C875.228 1071.29 881.576 1073.45 889.932 1073.45H1002.5C1011.02 1073.45 1017.37 1071.29 1021.54 1066.95C1025.72 1062.61 1027.81 1056.34 1027.81 1048.14V963.778Z" fill="white"/>
<path d="M1433.74 1136.13H1371.06V963.296C1371.06 955.1 1368.98 948.913 1364.8 944.735C1360.62 940.396 1354.35 938.227 1346 938.227H1232.94V875.554H1346C1351.94 875.554 1358.21 876.277 1364.8 877.724C1371.39 879.009 1377.89 881.098 1384.32 883.991C1390.91 886.883 1397.18 890.66 1403.12 895.32C1409.07 899.82 1414.29 905.364 1418.79 911.953C1423.29 918.38 1426.91 925.853 1429.64 934.37C1432.37 942.887 1433.74 952.529 1433.74 963.296V1136.13ZM1207.63 1136.13H1144.96V765.395H1207.63V1136.13Z" fill="white"/>
<path d="M1797.24 1136.13H1706.84L1580.54 1014.16C1573.46 1007.73 1570.17 999.694 1570.65 990.052C1570.97 985.553 1572.1 981.374 1574.03 977.518C1576.12 973.5 1578.93 970.125 1582.46 967.394L1696.96 875.072H1797.24L1649.72 993.909L1797.24 1136.13ZM1554.74 1136.13H1492.07V765.395H1554.74V1136.13Z" fill="white"/>
<path d="M2107.23 1048.14C2107.23 1058.91 2105.86 1068.63 2103.13 1077.31C2100.4 1085.83 2096.78 1093.38 2092.28 1099.97C2087.78 1106.4 2082.56 1111.94 2076.61 1116.6C2070.67 1121.1 2064.4 1124.8 2057.81 1127.69C2051.38 1130.58 2044.79 1132.75 2038.04 1134.2C2031.46 1135.48 2025.19 1136.13 2019.24 1136.13H1906.19C1897.51 1136.13 1888.03 1134.6 1877.75 1131.55C1867.46 1128.49 1857.9 1123.51 1849.06 1116.6C1840.39 1109.53 1833.07 1100.45 1827.13 1089.36C1821.34 1078.12 1818.45 1064.38 1818.45 1048.14V963.296C1818.45 947.226 1821.34 933.647 1827.13 922.559C1833.07 911.31 1840.39 902.23 1849.06 895.32C1857.9 888.249 1867.46 883.187 1877.75 880.134C1888.03 877.081 1897.51 875.554 1906.19 875.554H2019.24C2035.31 875.554 2048.97 878.447 2060.22 884.232C2071.47 890.017 2080.55 897.329 2087.46 906.167C2094.37 914.845 2099.35 924.326 2102.4 934.611C2105.62 944.896 2107.23 954.457 2107.23 963.296V1048.14ZM2044.55 963.778C2044.55 955.1 2042.38 948.672 2038.04 944.494C2033.71 940.316 2027.44 938.227 2019.24 938.227H1906.67C1898.32 938.227 1891.97 940.396 1887.63 944.735C1883.29 948.913 1881.12 955.1 1881.12 963.296V1048.14C1881.12 1056.34 1883.29 1062.61 1887.63 1066.95C1891.97 1071.29 1898.32 1073.45 1906.67 1073.45H2019.24C2027.76 1073.45 2034.11 1071.29 2038.29 1066.95C2042.46 1062.61 2044.55 1056.34 2044.55 1048.14V963.778Z" fill="white"/>
<path d="M449.14 1401.63C446.908 1401.63 445.095 1401 443.7 1399.75C442.445 1398.49 441.817 1396.89 441.817 1394.94V1334.05C441.817 1330.57 440.004 1328.82 436.377 1328.82H423.197C418.873 1328.82 416.711 1326.66 416.711 1322.34C416.711 1318.01 418.873 1315.85 423.197 1315.85H474.874C476.826 1315.85 478.43 1316.48 479.686 1317.74C480.941 1318.85 481.568 1320.39 481.568 1322.34C481.568 1324.29 480.941 1325.9 479.686 1327.15C478.43 1328.27 476.826 1328.82 474.874 1328.82H461.902C458.276 1328.82 456.462 1330.57 456.462 1334.05V1394.94C456.462 1396.89 455.765 1398.49 454.37 1399.75C453.115 1401 451.371 1401.63 449.14 1401.63Z" fill="white"/>
<path d="M592.47 1399.54C588.983 1399.54 586.194 1398.49 584.102 1396.4C582.009 1394.31 580.963 1391.52 580.963 1388.03V1326.73C580.963 1323.52 582.009 1320.94 584.102 1318.99C586.333 1316.9 588.914 1315.85 591.843 1315.85H623.435C625.806 1315.85 627.479 1316.48 628.456 1317.74C629.572 1318.85 630.13 1320.32 630.13 1322.13C630.13 1323.8 629.502 1325.27 628.247 1326.52C627.131 1327.78 625.527 1328.41 623.435 1328.41H601.048C597.422 1328.41 595.609 1330.22 595.609 1333.85V1345.35C595.609 1348.98 597.282 1350.79 600.63 1350.79H621.342C623.714 1350.79 625.387 1351.42 626.364 1352.68C627.479 1353.93 628.037 1355.39 628.037 1357.07C628.037 1358.6 627.41 1360.07 626.154 1361.46C625.039 1362.72 623.435 1363.35 621.342 1363.35H600.63C597.282 1363.35 595.609 1365.09 595.609 1368.58V1381.34C595.609 1384.96 597.352 1386.78 600.839 1386.78H625.527C627.898 1386.78 629.572 1387.48 630.548 1388.87C631.664 1390.13 632.222 1391.59 632.222 1393.26C632.222 1394.94 631.594 1396.4 630.339 1397.66C629.223 1398.91 627.619 1399.54 625.527 1399.54H592.47Z" fill="white"/>
<path d="M800.289 1394.94C797.918 1396.75 794.222 1398.28 789.201 1399.54C784.179 1400.93 779.228 1401.63 774.346 1401.63C766.256 1401.63 759.003 1399.75 752.587 1395.98C746.171 1392.22 741.08 1386.99 737.314 1380.29C733.549 1373.6 731.666 1365.93 731.666 1357.28C731.666 1348.77 733.479 1341.24 737.105 1334.68C740.732 1328.13 745.823 1323.04 752.378 1319.41C759.073 1315.64 766.814 1313.76 775.601 1313.76C779.088 1313.76 782.506 1314.04 785.853 1314.6C789.34 1315.16 792.827 1316.13 796.314 1317.53C797.709 1318.22 798.685 1319.2 799.243 1320.46C799.94 1321.57 800.289 1322.69 800.289 1323.8C800.289 1325.62 799.661 1327.22 798.406 1328.62C797.29 1330.01 795.756 1330.71 793.803 1330.71C792.966 1330.71 791.99 1330.5 790.874 1330.08C788.643 1329.24 785.992 1328.48 782.924 1327.78C779.995 1327.08 777.066 1326.73 774.137 1326.73C768.558 1326.73 763.676 1328.2 759.492 1331.13C755.307 1333.92 752.029 1337.68 749.658 1342.42C747.427 1347.17 746.311 1352.4 746.311 1358.11C746.311 1366.62 748.891 1373.88 754.052 1379.87C759.213 1385.87 766.047 1388.87 774.555 1388.87C778.321 1388.87 782.017 1388.31 785.644 1387.2C789.27 1385.94 791.99 1384.62 793.803 1383.22C795.338 1382.38 796.663 1381.97 797.778 1381.97C799.592 1381.97 801.056 1382.66 802.172 1384.06C803.288 1385.31 803.846 1386.78 803.846 1388.45C803.846 1390.96 802.66 1393.12 800.289 1394.94Z" fill="white"/>
<path d="M912.565 1401.63C910.473 1401.63 908.73 1401 907.335 1399.75C905.94 1398.49 905.243 1396.89 905.243 1394.94V1321.71C905.243 1319.62 905.94 1317.94 907.335 1316.69C908.73 1315.43 910.473 1314.81 912.565 1314.81C914.797 1314.81 916.541 1315.43 917.796 1316.69C919.191 1317.94 919.888 1319.62 919.888 1321.71V1342.84C919.888 1347.03 921.841 1349.12 925.746 1349.12H955.874C959.779 1349.12 961.732 1347.03 961.732 1342.84V1321.71C961.732 1319.62 962.359 1317.94 963.615 1316.69C965.009 1315.43 966.823 1314.81 969.054 1314.81C971.286 1314.81 973.029 1315.43 974.285 1316.69C975.68 1317.94 976.377 1319.62 976.377 1321.71V1394.94C976.377 1396.89 975.68 1398.49 974.285 1399.75C973.029 1401 971.286 1401.63 969.054 1401.63C966.823 1401.63 965.009 1401 963.615 1399.75C962.359 1398.49 961.732 1396.89 961.732 1394.94V1368.37C961.732 1364.18 959.779 1362.09 955.874 1362.09H925.746C921.841 1362.09 919.888 1364.18 919.888 1368.37V1394.94C919.888 1396.89 919.191 1398.49 917.796 1399.75C916.541 1401 914.797 1401.63 912.565 1401.63Z" fill="white"/>
<path d="M1090.34 1401.63C1088.52 1401.63 1086.85 1401.07 1085.31 1399.96C1083.78 1398.84 1083.01 1397.17 1083.01 1394.94V1324.43C1083.01 1321.22 1083.99 1318.85 1085.94 1317.32C1088.03 1315.64 1090.27 1314.81 1092.64 1314.81C1096.26 1314.81 1098.91 1316.2 1100.59 1318.99L1135.11 1373.18C1135.81 1374.29 1136.57 1374.85 1137.41 1374.85C1138.66 1374.85 1139.29 1373.88 1139.29 1371.92L1138.46 1321.5C1138.46 1319.27 1139.22 1317.6 1140.76 1316.48C1142.29 1315.36 1143.96 1314.81 1145.78 1314.81C1147.59 1314.81 1149.27 1315.36 1150.8 1316.48C1152.33 1317.6 1153.1 1319.27 1153.1 1321.5V1392.43C1153.1 1395.5 1152.19 1397.8 1150.38 1399.33C1148.57 1400.87 1146.48 1401.63 1144.1 1401.63C1142.43 1401.63 1140.76 1401.21 1139.08 1400.38C1137.55 1399.68 1136.22 1398.49 1135.11 1396.82L1101.21 1344.1C1100.52 1342.98 1099.75 1342.42 1098.91 1342.42C1097.66 1342.42 1097.03 1343.4 1097.03 1345.35L1097.66 1394.94C1097.66 1397.17 1096.89 1398.84 1095.36 1399.96C1093.96 1401.07 1092.29 1401.63 1090.34 1401.63Z" fill="white"/>
<path d="M1299.3 1401.63C1291.21 1401.63 1283.82 1399.75 1277.13 1395.98C1270.57 1392.08 1265.34 1386.85 1261.43 1380.29C1257.53 1373.6 1255.58 1366.07 1255.58 1357.7C1255.58 1348.91 1257.53 1341.24 1261.43 1334.68C1265.34 1328.13 1270.57 1323.04 1277.13 1319.41C1283.82 1315.64 1291.21 1313.76 1299.3 1313.76C1307.39 1313.76 1314.65 1315.64 1321.06 1319.41C1327.62 1323.04 1332.78 1328.13 1336.54 1334.68C1340.45 1341.24 1342.4 1348.91 1342.4 1357.7C1342.4 1366.07 1340.45 1373.6 1336.54 1380.29C1332.78 1386.85 1327.62 1392.08 1321.06 1395.98C1314.65 1399.75 1307.39 1401.63 1299.3 1401.63ZM1299.3 1388.87C1304.88 1388.87 1309.76 1387.48 1313.95 1384.69C1318.27 1381.76 1321.62 1377.92 1323.99 1373.18C1326.36 1368.44 1327.55 1363.28 1327.55 1357.7C1327.55 1348.77 1324.9 1341.38 1319.6 1335.52C1314.3 1329.66 1307.53 1326.73 1299.3 1326.73C1290.93 1326.73 1284.1 1329.66 1278.8 1335.52C1273.5 1341.38 1270.85 1348.77 1270.85 1357.7C1270.85 1363.28 1272.04 1368.44 1274.41 1373.18C1276.78 1377.92 1280.12 1381.76 1284.45 1384.69C1288.77 1387.48 1293.72 1388.87 1299.3 1388.87Z" fill="white"/>
<path d="M1456.39 1399.54C1452.91 1399.54 1450.12 1398.49 1448.02 1396.4C1445.93 1394.31 1444.89 1391.52 1444.89 1388.03V1321.71C1444.89 1319.34 1445.65 1317.6 1447.19 1316.48C1448.86 1315.36 1450.6 1314.81 1452.42 1314.81C1454.23 1314.81 1455.84 1315.36 1457.23 1316.48C1458.76 1317.6 1459.53 1319.34 1459.53 1321.71V1381.13C1459.53 1383.22 1459.95 1384.69 1460.79 1385.52C1461.62 1386.22 1463.02 1386.57 1464.97 1386.57H1486.52C1488.75 1386.57 1490.36 1387.27 1491.33 1388.66C1492.45 1390.06 1493.01 1391.52 1493.01 1393.05C1493.01 1394.73 1492.45 1396.26 1491.33 1397.66C1490.36 1398.91 1488.75 1399.54 1486.52 1399.54H1456.39Z" fill="white"/>
<path d="M1631.96 1401.63C1623.87 1401.63 1616.48 1399.75 1609.78 1395.98C1603.23 1392.08 1598 1386.85 1594.09 1380.29C1590.19 1373.6 1588.23 1366.07 1588.23 1357.7C1588.23 1348.91 1590.19 1341.24 1594.09 1334.68C1598 1328.13 1603.23 1323.04 1609.78 1319.41C1616.48 1315.64 1623.87 1313.76 1631.96 1313.76C1640.05 1313.76 1647.3 1315.64 1653.72 1319.41C1660.27 1323.04 1665.43 1328.13 1669.2 1334.68C1673.11 1341.24 1675.06 1348.91 1675.06 1357.7C1675.06 1366.07 1673.11 1373.6 1669.2 1380.29C1665.43 1386.85 1660.27 1392.08 1653.72 1395.98C1647.3 1399.75 1640.05 1401.63 1631.96 1401.63ZM1631.96 1388.87C1637.54 1388.87 1642.42 1387.48 1646.6 1384.69C1650.93 1381.76 1654.28 1377.92 1656.65 1373.18C1659.02 1368.44 1660.2 1363.28 1660.2 1357.7C1660.2 1348.77 1657.55 1341.38 1652.25 1335.52C1646.95 1329.66 1640.19 1326.73 1631.96 1326.73C1623.59 1326.73 1616.76 1329.66 1611.46 1335.52C1606.16 1341.38 1603.51 1348.77 1603.51 1357.7C1603.51 1363.28 1604.69 1368.44 1607.06 1373.18C1609.43 1377.92 1612.78 1381.76 1617.11 1384.69C1621.43 1387.48 1626.38 1388.87 1631.96 1388.87Z" fill="white"/>
<path d="M1817.27 1401.63C1809.32 1401.63 1802.07 1399.75 1795.51 1395.98C1789.09 1392.08 1783.93 1386.85 1780.03 1380.29C1776.26 1373.6 1774.38 1366.07 1774.38 1357.7C1774.38 1348.91 1776.26 1341.24 1780.03 1334.68C1783.93 1327.99 1789.16 1322.83 1795.72 1319.2C1802.41 1315.57 1809.88 1313.76 1818.11 1313.76C1823.82 1313.76 1829.13 1314.53 1834.01 1316.06C1838.89 1317.46 1843.49 1319.76 1847.82 1322.97C1849.49 1324.36 1850.33 1326.24 1850.33 1328.62C1850.33 1330.43 1849.7 1332.03 1848.44 1333.43C1847.33 1334.68 1845.79 1335.31 1843.84 1335.31C1842.58 1335.31 1841.19 1334.82 1839.66 1333.85C1836.31 1331.33 1832.82 1329.52 1829.19 1328.41C1825.57 1327.29 1821.94 1326.73 1818.32 1326.73C1809.81 1326.73 1802.76 1329.59 1797.18 1335.31C1791.74 1340.89 1789.03 1348.35 1789.03 1357.7C1789.03 1366.76 1791.61 1374.22 1796.77 1380.08C1802.07 1385.8 1808.9 1388.66 1817.27 1388.66C1822.29 1388.66 1826.68 1387.75 1830.45 1385.94C1834.36 1384.13 1837.42 1381.83 1839.66 1379.04C1842.03 1376.11 1843.35 1373.25 1843.63 1370.46C1843.63 1368.23 1842.52 1367.11 1840.28 1367.11H1825.43C1820.83 1367.11 1818.52 1364.95 1818.52 1360.63C1818.52 1358.67 1819.15 1357.14 1820.41 1356.02C1821.66 1354.91 1823.34 1354.35 1825.43 1354.35H1849.28C1852.35 1354.35 1854.58 1355.05 1855.97 1356.44C1857.37 1357.7 1858.07 1360.21 1858.07 1363.97C1858.07 1370.81 1856.32 1377.08 1852.84 1382.8C1849.49 1388.52 1844.75 1393.12 1838.61 1396.61C1832.47 1399.96 1825.36 1401.63 1817.27 1401.63Z" fill="white"/>
<path d="M1988.94 1401.63C1986.71 1401.63 1984.9 1401 1983.5 1399.75C1982.25 1398.49 1981.62 1396.89 1981.62 1394.94V1371.92C1981.62 1368.58 1980.71 1365.51 1978.9 1362.72L1954.63 1326.1C1953.79 1324.85 1953.38 1323.59 1953.38 1322.34C1953.38 1320.25 1954.21 1318.5 1955.89 1317.11C1957.56 1315.57 1959.37 1314.81 1961.33 1314.81C1962.44 1314.81 1963.49 1315.02 1964.46 1315.43C1965.44 1315.85 1966.28 1316.69 1966.97 1317.94L1986.85 1349.75C1987.41 1350.72 1988.11 1351.21 1988.94 1351.21C1989.78 1351.21 1990.48 1350.72 1991.03 1349.75L2010.91 1317.94C2011.61 1316.69 2012.44 1315.85 2013.42 1315.43C2014.54 1315.02 2015.58 1314.81 2016.56 1314.81C2018.51 1314.81 2020.33 1315.57 2022 1317.11C2023.67 1318.5 2024.51 1320.25 2024.51 1322.34C2024.51 1323.59 2024.09 1324.85 2023.25 1326.1L1998.98 1362.72C1997.17 1365.51 1996.27 1368.58 1996.27 1371.92V1394.94C1996.27 1396.89 1995.57 1398.49 1994.17 1399.75C1992.92 1401 1991.17 1401.63 1988.94 1401.63Z" fill="white"/>
<defs>
<linearGradient id="paint0_linear_861_87" x1="2761.89" y1="1129.4" x2="1912.73" y2="306.719" gradientUnits="userSpaceOnUse">
<stop stop-color="#DB4F38"/>
<stop offset="1" stop-color="#E88B23"/>
</linearGradient>
<linearGradient id="paint1_linear_861_87" x1="707.36" y1="590.475" x2="1830.94" y2="590.475" gradientUnits="userSpaceOnUse">
<stop stop-color="#DC5735"/>
<stop offset="1" stop-color="#E58126"/>
</linearGradient>
<linearGradient id="paint2_linear_861_87" x1="3254.47" y1="1759.59" x2="2081.06" y2="-409.245" gradientUnits="userSpaceOnUse">
<stop stop-color="#DB4F38"/>
<stop offset="1" stop-color="#E88B23"/>
</linearGradient>
</defs>
</svg>
